<svg width="255" height="161" viewBox="0 0 255 161" fill="none" xmlns="http://www.w3.org/2000/svg">
<path d="M0.28678 18.3685C-0.100339 18.7624 -0.0948406 19.3955 0.29906 19.7826C0.692961 20.1697 1.3261 20.1642 1.71322 19.7703L0.28678 18.3685ZM92 11.4995L92.3996 10.5828L92 11.4995ZM142.217 104.413L142.104 103.419L142.217 104.413ZM251.876 160.992C252.424 161.061 252.924 160.672 252.992 160.124L254.112 151.194C254.181 150.646 253.792 150.146 253.244 150.077C252.696 150.009 252.196 150.397 252.128 150.945L251.132 158.883L243.194 157.888C242.646 157.819 242.146 158.207 242.078 158.755C242.009 159.303 242.398 159.803 242.946 159.872L251.876 160.992ZM1 19.0694C1.71322 19.7703 1.7129 19.7707 1.71271 19.7709C1.71281 19.7708 1.71274 19.7708 1.71294 19.7706C1.71334 19.7702 1.71423 19.7693 1.71562 19.7679C1.71839 19.7651 1.72313 19.7604 1.72984 19.7537C1.74326 19.7403 1.76454 19.7192 1.79367 19.6908C1.85193 19.6339 1.94155 19.5476 2.06234 19.4346C2.30392 19.2087 2.67009 18.8762 3.15925 18.4595C4.13765 17.6259 5.60742 16.4558 7.55569 15.1268C11.4527 12.4686 17.2597 9.17798 24.8751 6.67203C40.084 1.66735 62.5803 -0.233344 91.6004 12.4162L92.3996 10.5828C62.9197 -2.26711 39.916 -0.38288 24.2499 4.77225C16.4278 7.34621 10.4535 10.7292 6.42868 13.4746C4.41602 14.8475 2.88969 16.0617 1.86224 16.937C1.34846 17.3747 0.959261 17.7279 0.696206 17.9739C0.564673 18.0969 0.464659 18.1932 0.396361 18.2598C0.362211 18.2932 0.335989 18.3192 0.317718 18.3374C0.308582 18.3465 0.301434 18.3537 0.296277 18.3589C0.293698 18.3614 0.291617 18.3636 0.290034 18.3652C0.289243 18.366 0.288429 18.3668 0.288033 18.3672C0.287344 18.3679 0.28678 18.3685 1 19.0694ZM91.6004 12.4162C128.823 28.6413 142.91 59.5078 144.882 86.3474C145.87 99.7821 143.816 112.168 140.133 121.158C138.291 125.656 136.058 129.26 133.636 131.723C131.212 134.188 128.666 135.448 126.161 135.448V137.448C129.376 137.448 132.404 135.828 135.062 133.126C137.721 130.422 140.077 126.571 141.984 121.917C145.798 112.604 147.884 99.9032 146.877 86.2009C144.861 58.7665 130.428 27.1588 92.3996 10.5828L91.6004 12.4162ZM126.161 135.448C121.92 135.448 119.358 133.776 118.112 131.407C116.834 128.976 116.817 125.574 118.204 121.932C120.968 114.677 129.181 106.895 142.329 105.406L142.104 103.419C128.26 104.986 119.382 113.222 116.335 121.22C114.817 125.205 114.714 129.24 116.342 132.337C118.003 135.497 121.34 137.448 126.161 137.448V135.448ZM142.329 105.406C186.869 100.365 225.974 128.14 251.21 160.613L252.79 159.386C227.357 126.66 187.643 98.2642 142.104 103.419L142.329 105.406Z" fill="url(#paint0_linear_38_736)"/>
<defs>
<linearGradient id="paint0_linear_38_736" x1="96.5995" y1="28.9257" x2="217.887" y2="44.1151" gradientUnits="userSpaceOnUse">
<stop stop-color="#5FB5FC"/>
<stop offset="0.578709" stop-color="#844AFF"/>
<stop offset="1" stop-color="#DF52FF"/>
</linearGradient>
</defs>
</svg>
