<svg width="27" height="27" viewBox="0 0 27 27" fill="none" xmlns="http://www.w3.org/2000/svg">
<g clip-path="url(#clip0_834_12311)">
<path fill-rule="evenodd" clip-rule="evenodd" d="M11.3825 22.0545C5.64476 22.0545 0.993408 17.4032 0.993408 11.6655C0.993408 5.92772 5.64476 1.27637 11.3825 1.27637C17.1202 1.27637 21.7716 5.92772 21.7716 11.6655C21.7716 14.0943 20.9381 16.3284 19.5415 18.0975L25.0804 23.6363C25.5578 24.1137 25.5578 24.8876 25.0804 25.365C24.6031 25.8422 23.8293 25.8422 23.3519 25.365L17.8129 19.8259C16.0441 21.2216 13.8105 22.0545 11.3825 22.0545ZM16.9296 17.3527C15.4979 18.7495 13.5407 19.6101 11.3825 19.6101C6.99481 19.6101 3.4379 16.0531 3.4379 11.6655C3.4379 7.27778 6.99481 3.72086 11.3825 3.72086C15.7702 3.72086 19.3271 7.27778 19.3271 11.6655C19.3271 13.8243 18.466 15.7822 17.0684 17.214C17.0438 17.2351 17.0196 17.2574 16.9962 17.2807C16.9729 17.304 16.9508 17.3281 16.9296 17.3527Z" fill="#6637F2"/>
</g>
<defs>
<clipPath id="clip0_834_12311">
<rect width="26.4005" height="26.4005" fill="white" transform="translate(0.0124512 0.299805)"/>
</clipPath>
</defs>
</svg>
